<?xml version="1.0" standalone="no"?>
<!DOCTYPE svg PUBLIC "-//W3C//DTD SVG 20010904//EN"
 "http://www.w3.org/TR/2001/REC-SVG-20010904/DTD/svg10.dtd">
<svg version="1.0" xmlns="http://www.w3.org/2000/svg"
 width="550.000000pt" height="550.000000pt" viewBox="0 0 550.000000 550.000000"
 preserveAspectRatio="xMidYMid meet">
<metadata>
Created by potrace 1.11, written by Peter Selinger 2001-2013
</metadata>
<g transform="translate(0.000000,550.000000) scale(0.100000,-0.100000)"
fill="#000000" stroke="none">
<path d="M0 2750 l0 -2750 2750 0 2750 0 0 2750 0 2750 -2750 0 -2750 0 0
-2750z m3135 1270 c3 -5 -3 -10 -15 -10 -12 0 -18 5 -15 10 3 6 10 10 15 10 5
0 12 -4 15 -10z m166 -10 c28 -15 23 -28 -8 -23 -44 7 -55 12 -48 23 8 13 31
13 56 0z m125 -51 c3 -6 22 -9 43 -6 23 3 46 -2 66 -13 17 -10 53 -21 80 -25
28 -4 55 -10 60 -14 6 -4 46 -18 90 -30 88 -26 103 -31 156 -54 21 -9 54 -19
75 -22 22 -4 53 -13 69 -20 99 -43 158 -66 162 -61 7 6 59 -20 92 -45 13 -11
37 -19 52 -19 18 0 29 -5 29 -13 0 -25 36 -47 83 -51 54 -5 67 -12 67 -31 0
-26 105 -95 144 -95 21 0 46 -9 63 -22 47 -38 92 -68 101 -68 16 0 70 -66 81
-100 6 -19 10 -66 10 -105 -2 -155 1 -193 16 -199 23 -8 18 -56 -10 -92 -25
-33 -27 -33 -50 -18 -25 16 -25 16 -25 -19 0 -23 6 -40 18 -49 11 -7 21 -20
24 -28 7 -21 -18 -67 -41 -75 -10 -3 -26 -14 -36 -25 -17 -19 -18 -19 -41 -1
-15 12 -33 17 -46 13 -13 -3 -18 -7 -12 -9 6 -2 9 -14 7 -26 -3 -13 2 -29 11
-36 14 -12 14 -16 1 -41 -15 -30 -47 -37 -73 -17 -9 8 -8 13 5 23 10 7 14 14
9 14 -11 0 -71 -50 -72 -61 -1 -5 -2 -16 -3 -25 0 -8 -5 -13 -10 -10 -16 10
-18 -18 -3 -30 13 -10 12 -13 -9 -27 -24 -15 -187 -47 -242 -47 -30 0 -30 0
-11 22 11 12 13 18 4 13 -8 -5 -30 -11 -49 -14 -26 -5 -35 -11 -38 -30 -9 -63
-70 -81 -192 -56 -83 17 -121 11 -121 -19 0 -15 -38 -50 -64 -60 -13 -4 -27 1
-42 15 -26 24 -94 32 -189 21 -51 -6 -60 -10 -60 -27 0 -16 9 -21 45 -26 l45
-5 -49 -22 c-43 -20 -60 -22 -160 -18 -82 4 -126 1 -167 -10 -42 -12 -68 -13
-106 -6 -37 6 -57 5 -74 -4 -25 -13 -39 -10 -39 7 0 6 24 36 54 67 30 32 57
69 61 85 4 15 16 44 26 64 10 21 19 45 19 55 0 17 49 117 69 142 5 6 9 23 9
39 0 15 5 48 11 72 28 113 33 134 43 190 6 33 12 103 13 155 1 52 4 102 8 110
4 8 6 67 5 130 -1 105 -1 177 1 285 0 22 -6 56 -14 75 -19 44 -56 243 -46 250
4 3 13 24 19 48 12 40 33 54 48 31z m-2644 -345 c-1 -10 -5 -36 -9 -56 -4 -30
-2 -38 9 -38 9 0 21 6 27 14 18 21 50 26 66 9 12 -11 14 -33 11 -99 -2 -46 0
-86 4 -89 12 -8 60 42 60 62 0 25 40 63 66 63 24 0 43 -35 47 -85 2 -24 8 -30
35 -36 26 -5 35 -3 39 10 19 60 26 71 50 71 29 0 39 23 24 57 -14 32 -7 41 20
25 11 -7 29 -10 39 -7 11 3 33 -1 50 -10 32 -17 38 -40 20 -91 -14 -40 1 -86
32 -102 50 -24 78 -69 78 -123 0 -56 -13 -89 -35 -89 -16 0 -31 -43 -20 -59 3
-6 19 -11 34 -11 36 0 64 -22 59 -46 -2 -10 -20 -28 -40 -39 -20 -11 -40 -30
-43 -42 -7 -29 -43 -31 -76 -4 -14 10 -35 21 -48 22 -19 3 -26 -2 -32 -23 -4
-15 -4 -30 0 -33 3 -4 6 -24 7 -46 0 -41 -20 -55 -31 -20 -9 29 -34 34 -39 8
-14 -66 -13 -79 3 -85 48 -18 57 -74 17 -110 -32 -30 -64 -14 -72 38 -4 22
-12 40 -19 40 -14 0 -35 50 -35 84 0 12 9 29 20 39 11 9 20 26 20 36 0 11 4
22 9 26 14 8 10 163 -4 182 -11 15 -14 14 -31 -3 -11 -10 -32 -29 -48 -41
l-29 -23 17 -60 c18 -62 10 -105 -17 -94 -7 2 -20 -1 -30 -8 -14 -10 -18 -30
-20 -86 -1 -68 -3 -73 -26 -79 -13 -3 -32 -1 -41 5 -14 8 -20 6 -30 -13 -7
-13 -10 -35 -8 -50 3 -14 1 -28 -4 -31 -4 -3 -6 -9 -3 -14 3 -4 -7 -11 -21
-14 -22 -6 -32 0 -60 31 -18 21 -33 45 -34 53 0 9 -4 20 -10 26 -5 5 -10 25
-11 44 -3 59 -9 73 -25 59 -7 -6 -28 -9 -46 -6 -18 2 -41 0 -52 -5 -13 -7 -16
-7 -12 1 4 6 2 11 -3 11 -6 0 -11 7 -11 15 0 8 5 15 11 15 5 0 8 -4 4 -9 -3
-5 -1 -12 5 -16 5 -3 10 2 10 12 0 10 9 25 20 33 23 17 27 35 6 27 -10 -4 -13
-1 -10 8 6 15 -41 65 -62 65 -8 0 -11 -10 -8 -30 3 -16 3 -30 0 -30 -16 0 -36
14 -36 27 0 8 -7 21 -15 30 -8 8 -12 20 -8 26 4 7 -2 5 -12 -3 -13 -11 -19
-12 -22 -3 -3 9 -13 8 -42 -2 -48 -17 -58 -10 -65 44 -3 23 -9 48 -15 55 -7 8
-2 19 15 35 13 13 24 28 24 34 0 18 -33 117 -40 117 -3 0 -6 8 -7 18 -1 9 -2
22 -3 27 -4 19 0 35 9 35 6 0 21 10 34 23 23 21 24 25 12 59 -6 20 -9 42 -5
48 9 15 58 40 79 40 22 0 41 19 41 40 0 9 9 25 20 35 11 10 20 13 20 7 0 -7
11 -12 25 -12 13 0 28 -7 32 -15 8 -13 16 -9 50 20 23 20 45 44 48 54 6 19 71
53 90 47 6 -2 9 -12 7 -22z m315 -50 c8 -21 -13 -64 -32 -64 -17 0 -20 32 -5
61 13 23 28 25 37 3z m2057 -161 c51 -52 86 -96 86 -108 0 -11 7 -30 15 -42
11 -15 13 -38 10 -82 -6 -68 -43 -133 -98 -175 -42 -31 -151 -54 -172 -36 -19
16 -19 44 1 75 15 23 15 28 -7 80 -12 30 -35 66 -51 80 -15 14 -28 30 -28 36
0 6 -9 8 -19 4 -15 -4 -20 0 -23 17 -3 21 -8 23 -50 20 -37 -2 -52 2 -68 18
-32 32 -24 56 43 123 l62 63 95 3 c52 1 97 4 99 7 11 10 25 -1 105 -83z
m-1551 -125 c69 -26 69 -28 -16 -120 -27 -29 -51 -19 -58 24 -3 20 -16 45 -28
55 -20 17 -21 19 -5 41 18 26 37 26 107 0z m3516 -32 c12 -29 -3 -179 -35
-371 -22 -135 -51 -235 -55 -190 -1 11 0 25 1 30 16 79 38 267 47 410 8 132
23 174 42 121z m119 -20 c2 -11 -1 -35 -7 -55 -6 -20 -15 -115 -20 -213 -9
-175 -18 -218 -46 -218 -16 0 -19 23 -14 95 4 71 2 149 -6 197 -5 33 -3 60 9
94 9 26 16 59 16 74 0 14 6 32 12 38 18 18 52 10 56 -12z m-3524 -59 c22 -16
18 -50 -7 -55 -25 -5 -47 16 -47 44 0 27 25 32 54 11z m74 -149 c14 -14 16
-44 3 -52 -16 -10 -53 28 -46 47 8 20 26 22 43 5z m3659 -3 c7 -5 -25 -34 -43
-39 -16 -5 -23 -2 -27 13 -7 27 12 42 42 34 14 -3 27 -7 28 -8z m-3874 -161
c-9 -27 -37 -53 -47 -43 -6 6 18 101 30 121 13 21 28 -45 17 -78z m202 16 c3
-5 1 -10 -4 -10 -6 0 -11 5 -11 10 0 6 2 10 4 10 3 0 8 -4 11 -10z m3622 -32
c-3 -8 -6 -5 -6 6 -1 11 2 17 5 13 3 -3 4 -12 1 -19z m-4837 -38 c0 -5 -4 -10
-10 -10 -5 0 -10 5 -10 10 0 6 5 10 10 10 6 0 10 -4 10 -10z m1203 -24 c-3
-35 -1 -35 -40 -29 -26 4 -33 10 -33 28 0 26 13 35 50 32 21 -2 25 -7 23 -31z
m-167 -50 c-8 -40 -24 -55 -37 -35 -15 24 -10 67 9 78 25 14 36 -2 28 -43z
m164 -15 c0 -6 -4 -13 -10 -16 -5 -3 -10 1 -10 9 0 9 5 16 10 16 6 0 10 -4 10
-9z m90 -21 c0 -5 -2 -10 -4 -10 -3 0 -8 5 -11 10 -3 6 -1 10 4 10 6 0 11 -4
11 -10z m-488 -87 c22 -20 23 -46 3 -63 -10 -9 -15 -9 -15 -1 0 6 -7 11 -15
11 -21 0 -29 24 -15 49 13 25 18 26 42 4z m-245 -110 c34 -82 19 -136 -17 -61
-21 43 -25 70 -13 81 11 12 18 8 30 -20z m1018 -75 c29 -13 33 -33 8 -42 -20
-8 -59 27 -49 43 9 14 9 14 41 -1z m292 -215 c4 -12 -52 -35 -61 -26 -10 10
-7 38 6 51 9 9 16 9 32 -1 11 -8 21 -18 23 -24z m68 -43 c10 -11 38 -31 61
-45 24 -14 44 -30 44 -35 0 -6 -32 -9 -75 -8 -63 2 -74 5 -69 18 9 20 9 51 0
73 -11 24 16 22 39 -3z m892 -50 c7 -15 9 -28 3 -34 -10 -10 -206 -30 -226
-22 -8 3 -14 12 -14 20 0 16 31 24 114 30 27 2 55 11 64 20 22 22 44 17 59
-14z"/>
<path d="M4920 2989 c0 -5 5 -7 10 -4 6 3 10 8 10 11 0 2 -4 4 -10 4 -5 0 -10
-5 -10 -11z"/>
<path d="M1085 3270 c-11 -17 6 -158 20 -170 32 -27 52 90 25 144 -16 32 -35
43 -45 26z"/>
<path d="M1211 3098 c-12 -32 -3 -65 27 -91 16 -15 24 -16 41 -7 30 16 26 35
-18 83 l-40 42 -10 -27z"/>
<path d="M387 3104 c-8 -8 21 -84 39 -104 12 -12 14 -12 14 1 0 23 -31 109
-39 109 -4 0 -10 -3 -14 -6z"/>
<path d="M1368 2978 c6 -27 20 -38 39 -31 11 4 9 11 -8 29 -28 30 -39 30 -31
2z"/>
<path d="M752 2973 c2 -9 8 -18 15 -20 7 -3 9 3 6 16 -6 25 -26 28 -21 4z"/>
</g>
</svg>
